<?xml version="1.0" encoding="UTF-8"?>
<svg version="1.1" xmlns="http://www.w3.org/2000/svg" width="477" height="200">
<path d="M0 0 C1.24854263 -0.00686325 2.49708527 -0.0137265 3.78346252 -0.02079773 C7.18051605 -0.0358758 10.57701672 -0.03758363 13.9740622 -0.03185534 C16.82402864 -0.02874475 19.67394646 -0.0348768 22.52390593 -0.04089409 C29.25588802 -0.0548989 35.9877431 -0.05341286 42.71972656 -0.04199219 C49.6317002 -0.03052422 56.54328521 -0.04457336 63.45520765 -0.07138866 C69.41907258 -0.09364741 75.38281645 -0.10016002 81.34671992 -0.09431225 C84.89562239 -0.09096451 88.44427611 -0.09320992 91.99314308 -0.11056328 C95.95781929 -0.12910675 99.92202916 -0.11474124 103.88671875 -0.09765625 C105.61643921 -0.1121582 105.61643921 -0.1121582 107.38110352 -0.12695312 C122.43354953 0.00795377 134.67442368 5.35372982 145.82495117 15.34155273 C156.13572469 26.15302928 159.64241842 40.1476055 161.37426758 54.5378418 C161.48184891 55.40275238 161.58943024 56.26766296 161.70027161 57.15878296 C162.05147479 59.99516403 162.3958086 62.83231845 162.73901367 65.66967773 C162.98274667 67.66917292 163.22651149 69.66866422 163.4703064 71.66815186 C163.97965808 75.85705401 164.48493639 80.04642678 164.98803711 84.23608398 C165.6264387 89.54542859 166.2804463 94.85272103 166.93840981 100.15967178 C167.44798551 104.29253569 167.94609998 108.42672716 168.44132614 112.5613327 C168.67719664 114.51499024 168.91707834 116.46816867 169.16142654 118.420784 C170.41761181 128.49333648 171.36165111 138.48836078 171.47094727 148.64526367 C171.48729532 149.47885532 171.50364338 150.31244698 171.52048683 151.17129898 C171.47500014 165.09044546 164.97563701 177.22468462 155.55541992 187.18139648 C146.83495902 195.19745829 134.78739234 200.50552693 122.92871094 200.55122375 C121.01542747 200.56195671 121.01542747 200.56195671 119.06349182 200.57290649 C117.65194727 200.57574663 116.24040245 200.57845838 114.82885742 200.58105469 C113.34036603 200.58732226 111.8518762 200.59396932 110.36338806 200.60096741 C105.47558679 200.62198363 100.58778531 200.63237078 95.69995117 200.64233398 C94.01375309 200.64638312 92.32755517 200.65050009 90.64135742 200.65468407 C82.71453592 200.67373415 74.7877237 200.68796288 66.86088371 200.69629604 C57.73101232 200.70605373 48.60138433 200.73233549 39.47159863 200.77279693 C32.40302172 200.80304056 25.33451422 200.81777289 18.26587391 200.82107705 C14.05011499 200.82341907 9.83461612 200.83226752 5.618927 200.85753822 C1.64615586 200.88096742 -2.32618677 200.88499324 -6.29900932 200.87477684 C-7.74851349 200.87428487 -9.19803982 200.88050399 -10.6474781 200.89433289 C-27.16102453 201.04293044 -40.44057405 196.24787221 -52.50317383 184.91577148 C-62.16491012 174.63018136 -66.17185809 163.25228425 -66.10400391 149.35180664 C-66.09905143 147.90460708 -66.09905143 147.90460708 -66.09399891 146.42817116 C-65.97141504 136.04563587 -64.84311441 125.84540077 -63.56176758 115.55249023 C-63.32141736 113.55012786 -63.08200214 111.54765305 -62.84346008 109.54507446 C-62.34629676 105.39465946 -61.84048036 101.24542983 -61.32763672 97.09692383 C-60.674611 91.81150975 -60.04013194 86.52407054 -59.4116087 81.23569298 C-58.92087261 77.11861058 -58.42228225 73.00250955 -57.92118263 68.88667679 C-57.68443969 66.93749152 -57.44962807 64.98807057 -57.21689415 63.03840256 C-54.76575436 42.60396362 -51.8154816 24.16470715 -34.86254883 10.40405273 C-23.6570858 2.57355083 -13.54075526 -0.0525834 0 0 Z M-24.53833008 37.26733398 C-28.25485024 43.2641969 -29.42862969 49.63759331 -30.21289062 56.51953125 C-30.37448166 57.83113472 -30.37448166 57.83113472 -30.53933716 59.16923523 C-30.89017696 62.03936504 -31.22641561 64.91098157 -31.56176758 67.78295898 C-31.8034785 69.79832832 -32.04582428 71.81362161 -32.28877258 73.82884216 C-32.79518543 78.04856515 -33.29445907 82.2690542 -33.78857422 86.49023438 C-34.41786276 91.86197991 -35.06390643 97.23154586 -35.71531963 102.60064793 C-36.21860899 106.76354165 -36.71324658 110.92742959 -37.20536232 115.09165764 C-37.44004911 117.06960968 -37.67722759 119.04726793 -37.91708946 121.02459908 C-41.41623417 144.46212253 -41.41623417 144.46212253 -34.11254883 166.15405273 C-25.64496833 174.62163323 -15.83201692 175.61690222 -4.28907776 175.67510986 C-3.09709274 175.6710614 -1.90510773 175.66701294 -0.67700195 175.6628418 C0.60562027 175.66634644 1.88824249 175.66985107 3.20973206 175.67346191 C6.69940863 175.68251058 10.18896576 175.67907304 13.67864418 175.67270374 C17.34814375 175.66760448 21.01763378 175.67234603 24.68713379 175.67547607 C30.84686093 175.67910435 37.00653995 175.67434661 43.16625977 175.66479492 C50.26563801 175.65391256 57.36490133 175.65743895 64.46427679 175.66844773 C70.58348997 175.67755316 76.70266876 175.67879002 82.82188654 175.67357039 C86.46619199 175.67046853 90.1104436 175.66999186 93.75474548 175.67664337 C97.82053318 175.68354717 101.8861259 175.67395114 105.9519043 175.6628418 C107.73988182 175.66891449 107.73988182 175.66891449 109.5639801 175.67510986 C120.50139771 175.61995569 129.63127529 174.75029554 138.13745117 167.40405273 C145.09335833 159.85434863 145.64508426 151.53387063 145.26541519 141.66768646 C144.82421476 133.86302243 143.78979169 126.10422191 142.83666992 118.34936523 C142.59672875 116.35218264 142.35730265 114.3549381 142.11836243 112.3576355 C141.61891 108.20017787 141.11304997 104.0435649 140.60253906 99.88745117 C139.95117397 94.58005083 139.31644649 89.27081378 138.68651104 83.9608326 C138.19657139 79.84718943 137.69765589 75.73467241 137.19608498 71.62243271 C136.95848623 69.66528844 136.72367448 67.70780359 136.49179649 65.7499733 C136.16625803 63.01253019 135.82856415 60.27684289 135.48779297 57.54125977 C135.39572067 56.74626572 135.30364838 55.95127167 135.20878601 55.13218689 C133.90725329 44.9495236 131.03863055 37.26090232 123.13745117 30.40405273 C114.84049871 25.23802573 105.97382264 25.25439863 96.49560547 25.25878906 C95.44750702 25.25543045 94.39940857 25.25207184 93.31954956 25.24861145 C89.86691084 25.23914019 86.41432081 25.23716026 82.96166992 25.23608398 C80.55182373 25.23286876 78.14197774 25.22950449 75.73213196 25.22599792 C70.68437243 25.22001623 65.63663001 25.21815704 60.58886719 25.21875 C54.13639454 25.21885157 47.68403206 25.20520036 41.2315855 25.18797779 C36.25488282 25.17683266 31.27820657 25.17483157 26.30149269 25.17535973 C23.92337476 25.17418337 21.54525607 25.16978098 19.1671505 25.16202736 C15.83384973 25.15217676 12.50078544 25.15512557 9.16748047 25.16113281 C8.19520004 25.15551331 7.22291962 25.1498938 6.22117615 25.144104 C-6.45517982 25.20184985 -15.98163682 27.53378893 -24.53833008 37.26733398 Z " fill="#004956" transform="translate(304.862548828125,-0.404052734375)"/>
<path d="M0 0 C4.62 0 9.24 0 14 0 C14.029729 2.24055176 14.029729 2.24055176 14.06005859 4.52636719 C14.13609878 10.06527642 14.22481898 15.60392241 14.31738281 21.14257812 C14.35567905 23.54031174 14.39053076 25.93810293 14.421875 28.3359375 C14.46751105 31.78145942 14.5255087 35.22658472 14.5859375 38.671875 C14.59748871 39.74491882 14.60903992 40.81796265 14.62094116 41.92352295 C14.64081085 42.92425842 14.66068054 43.9249939 14.68115234 44.95605469 C14.69447601 45.83541687 14.70779968 46.71477905 14.7215271 47.62078857 C15.02487932 50.21256347 15.55152559 51.83238052 17 54 C22.4765207 55.8255069 27.44731477 55.11053705 33 54 C33.33 48.72 33.66 43.44 34 38 C38.29 38 42.58 38 47 38 C47.99 45.92 47.99 45.92 49 54 C56.24822148 55.49029034 56.24822148 55.49029034 60 54 C61.4807848 51.0384304 61.35314037 48.16493705 61.5625 44.875 C61.68818359 42.95300781 61.68818359 42.95300781 61.81640625 40.9921875 C61.87699219 40.00476563 61.93757813 39.01734375 62 38 C66.29 38 70.58 38 75 38 C75.22786458 41.28776042 75.45572917 44.57552083 75.68359375 47.86328125 C75.8867371 51.02590958 75.8867371 51.02590958 77 54 C82.05009595 54.93786082 82.05009595 54.93786082 87 54 C88.41117949 47.6496923 87.3792223 42.30338787 86 36 C87.60149886 35.32694982 89.20631029 34.66177773 90.8125 34 C92.15248047 33.443125 92.15248047 33.443125 93.51953125 32.875 C96 32 96 32 99 32 C102.66334199 41.07113254 103.873963 51.62532246 101.0859375 61.109375 C98.68226926 66.35092252 96.15432122 69.42283939 91 72 C85.57647292 73.80784236 78.30880268 74.30986373 72.91796875 72.17578125 C71.375 71.125 71.375 71.125 69 69 C68.01 68.34 67.02 67.68 66 67 C65.21625 67.804375 64.4325 68.60875 63.625 69.4375 C59.95626466 73.01888449 58.21246411 73.17564788 53.1875 73.25 C52.14980469 73.27578125 51.11210937 73.3015625 50.04296875 73.328125 C45.10922768 72.79611698 41.82771548 69.97711204 38 67 C37.05125 67.804375 36.1025 68.60875 35.125 69.4375 C31.08790346 72.86025576 28.61244555 73.18212094 23.25 73.25 C21.43242187 73.28867188 21.43242187 73.28867188 19.578125 73.328125 C13.5167539 72.77227874 9.53925559 69.871718 5 66 C4.2575 66.78375 3.515 67.5675 2.75 68.375 C-2.48831372 73.37520855 -6.63710083 73.4398781 -13.73046875 73.3125 C-18.19190984 72.88607791 -21.49871324 71.8200019 -25 69 C-27.39578952 65.98990547 -28.78878746 63.63363762 -30 60 C-30.556875 60.78375 -31.11375 61.5675 -31.6875 62.375 C-34.65969089 65.74883831 -37.17771885 66.76574562 -41.61328125 67.3359375 C-47.85084909 67.42620621 -53.02831962 67.0585146 -58 63 C-62.85561171 57.09092639 -64.50880484 51.63207266 -64 44 C-62.38053442 36.58611629 -58.02978447 30.69117094 -51.7421875 26.4921875 C-45.48915304 23.13444874 -38.91191428 21.46076539 -32 20 C-32 17.69 -32 15.38 -32 13 C-27.38 13 -22.76 13 -18 13 C-17.97494385 14.17095215 -17.9498877 15.3419043 -17.92407227 16.54833984 C-17.83006297 20.88325378 -17.72982659 25.21800504 -17.62768555 29.55273438 C-17.58431211 31.43062542 -17.54263882 33.30855652 -17.50268555 35.18652344 C-17.44504124 37.8822844 -17.38133019 40.57784327 -17.31640625 43.2734375 C-17.29969376 44.11619232 -17.28298126 44.95894714 -17.26576233 45.82723999 C-17.26763856 50.0486661 -17.26763856 50.0486661 -16 54 C-10.81581551 55.7280615 -6.30479335 55.06095867 -1 54 C-0.67 36.18 -0.34 18.36 0 0 Z M-52 43 C-51.65555119 45.47266765 -51.65555119 45.47266765 -51 48 C-48.04412889 49.47793555 -45.35002355 49.17053651 -42.0625 49.1875 C-40.19271484 49.20876953 -40.19271484 49.20876953 -38.28515625 49.23046875 C-34.85723703 49.26240498 -34.85723703 49.26240498 -32 47 C-31.63539547 44.33346095 -31.63539547 44.33346095 -31.8125 41.375 C-31.83957031 40.37210938 -31.86664063 39.36921875 -31.89453125 38.3359375 C-31.94673828 37.17964844 -31.94673828 37.17964844 -32 36 C-39.5328412 36 -46.04746142 38.45727319 -52 43 Z " fill="#004956" transform="translate(99,28)"/>
<path d="M0 0 C1.89090634 1.07534217 3.73856675 2.20492859 5.58569336 3.35375977 C17.57940974 10.42538688 30.26782007 14.98083329 44.21069336 16.16625977 C45.01120117 16.2371582 45.81170898 16.30805664 46.63647461 16.38110352 C64.93428298 17.14991899 81.78439046 10.30769908 96.99194336 0.80297852 C100.53100767 -0.9966185 103.25916383 -1.60648091 107.21069336 -1.83374023 C111.17619373 -0.51190678 114.64884627 0.75046365 117.21069336 4.16625977 C118.12008377 6.89443099 118.4027841 8.71335754 118.46069336 11.54125977 C118.49936523 12.66661133 118.49936523 12.66661133 118.53881836 13.81469727 C118.09758614 16.97686147 117.15771992 18.62353104 115.21069336 21.16625977 C112.98966506 22.79674228 110.89716485 24.18153023 108.52319336 25.54125977 C107.86327393 25.92628662 107.20335449 26.31131348 106.5234375 26.70800781 C80.40916132 41.60185923 50.91645635 47.52696367 21.53881836 39.52172852 C7.83984727 35.42274936 -9.12431959 29.17421768 -18.78930664 18.16625977 C-20.5419811 12.9082364 -20.56042447 8.80102956 -18.22680664 3.85375977 C-13.13156746 -1.76406805 -7.00280823 -3.26300861 0 0 Z " fill="#004956" transform="translate(307.789306640625,107.833740234375)"/>
<path d="M0 0 C3.375 2.0625 3.375 2.0625 4.375 3.0625 C4.705 1.7425 5.035 0.4225 5.375 -0.9375 C9.995 -0.9375 14.615 -0.9375 19.375 -0.9375 C19.375 14.5725 19.375 30.0825 19.375 46.0625 C14.755 46.0625 10.135 46.0625 5.375 46.0625 C4.88 43.0925 4.88 43.0925 4.375 40.0625 C3.88 40.660625 3.385 41.25875 2.875 41.875 C-1.76728625 45.93700047 -6.46427545 47.39423132 -12.625 47.0625 C-19.22655278 46.11942103 -24.11184638 43.01356546 -28.5 38.0625 C-33.5586579 30.92086532 -33.47246125 23.50252223 -32.625 15.0625 C-30.24847007 7.36332864 -26.454731 3.20714936 -19.5 -0.6875 C-13.13098371 -3.1990293 -6.12330753 -3.0121836 0 0 Z M-16.625 15.0625 C-18.48389568 18.78029135 -18.06061318 23.00507441 -17.625 27.0625 C-15.71971934 31.33032867 -14.49008045 32.66199979 -10.25 34.625 C-5.85883691 35.15496796 -4.23964649 34.55258981 -0.625 32.0625 C2.19338506 28.93942466 4.16403479 26.57441734 4.75 22.375 C4.24365541 17.9022895 2.37316383 15.33715157 -0.625 12.0625 C-6.8283181 7.46003819 -11.80366619 10.35329023 -16.625 15.0625 Z " fill="#004956" transform="translate(182.625,129.9375)"/>
<path d="M0 0 C0.495 0.495 0.495 0.495 1 1 C1.33 -0.32 1.66 -1.64 2 -3 C6.62 -3 11.24 -3 16 -3 C16 12.51 16 28.02 16 44 C11.38 44 6.76 44 2 44 C1.67 42.35 1.34 40.7 1 39 C-0.0209375 39.928125 -0.0209375 39.928125 -1.0625 40.875 C-6.37522894 44.71825072 -11.38347647 45.48861921 -17.734375 44.52734375 C-24.5881638 42.93206532 -28.85968538 39.89212099 -32.8125 34.0703125 C-36.46136792 27.70879936 -36.89817658 20.79299682 -35.5703125 13.70703125 C-33.72096044 7.0744785 -30.04675723 1.50193704 -24.1171875 -2.1640625 C-15.77422178 -5.77822174 -7.53141877 -4.89640542 0 0 Z M-18 11 C-20.63176391 15.47399865 -21.54901734 19.0281461 -20.63671875 24.0703125 C-19.45715601 27.64518362 -17.8001813 29.4487237 -15 32 C-10.95437291 33.58307147 -9.40570783 33.1678791 -5.375 31.5 C-1.4369478 28.96214413 0.21341659 26.31757657 2 22 C2.21622359 16.81063393 -0.22137083 14.09758972 -3.52734375 10.41796875 C-5.66501359 8.35968187 -6.82250855 8.01577702 -9.8125 7.75 C-13.53726332 8.0421383 -15.13844371 8.60247986 -18 11 Z " fill="#004956" transform="translate(80,132)"/>
<path d="M0 0 C0.495 0.495 0.495 0.495 1 1 C0.91015699 2.85772162 0.75388139 4.71247985 0.5625 6.5625 C0.46066406 7.57441406 0.35882813 8.58632812 0.25390625 9.62890625 C0.17011719 10.41136719 0.08632813 11.19382813 0 12 C-2.74450501 11.48799991 -5.19207305 10.92743907 -7.8125 9.9375 C-11.85608332 8.74821079 -14.7884517 8.65479112 -19 9 C-21.009245 10.33358994 -21.009245 10.33358994 -22 12 C-21.67 12.66 -21.34 13.32 -21 14 C-17.73691845 14.89574788 -14.4763639 15.63142521 -11.16601562 16.32421875 C-5.82891572 17.53652399 -1.13588796 19.28159714 2.375 23.75 C3.79137201 28.84893924 3.70446841 32.59106317 1.375 37.25 C-3.48051335 42.87217336 -8.86232707 45.4009074 -16.2109375 46.2578125 C-23.61330319 46.61715064 -30.07654142 44.43080678 -37 42 C-36.88648483 40.18674449 -36.75887039 38.37436643 -36.625 36.5625 C-36.55539063 35.55316406 -36.48578125 34.54382813 -36.4140625 33.50390625 C-36.27742188 32.67761719 -36.14078125 31.85132813 -36 31 C-35.01 30.505 -35.01 30.505 -34 30 C-32.26826207 30.58016136 -30.56265117 31.23940474 -28.875 31.9375 C-23.89196898 33.82738972 -20.29589956 34.56741781 -15 34 C-14.01 33.34 -13.02 32.68 -12 32 C-12 31.34 -12 30.68 -12 30 C-13.73636719 29.52820313 -13.73636719 29.52820313 -15.5078125 29.046875 C-17.04703201 28.6151427 -18.58608588 28.1828196 -20.125 27.75 C-20.88554687 27.54503906 -21.64609375 27.34007812 -22.4296875 27.12890625 C-27.93321556 25.56324741 -33.30368338 23.85289613 -36.375 18.6875 C-37.46549842 13.99835679 -37.50305946 10.3503175 -35.8125 5.8125 C-28.32325114 -5.80874823 -11.43480192 -5.47622028 0 0 Z " fill="#004956" transform="translate(37,131)"/>
<path d="M0 0 C4.95 0 9.9 0 15 0 C15 20.13 15 40.26 15 61 C10.38 61 5.76 61 1 61 C0 60 0 60 -0.12025452 57.60191345 C-0.11803391 56.53824051 -0.11581329 55.47456757 -0.11352539 54.37866211 C-0.11344986 53.17749252 -0.11337433 51.97632294 -0.11329651 50.73875427 C-0.10813522 49.4314888 -0.10297394 48.12422333 -0.09765625 46.77734375 C-0.09579198 45.43355868 -0.09436812 44.08977293 -0.09336853 42.74598694 C-0.08954402 39.20317723 -0.07971432 35.6604083 -0.06866455 32.11761475 C-0.05844899 28.50484773 -0.0538706 24.89207416 -0.04882812 21.27929688 C-0.03809198 14.18617961 -0.02049572 7.09309675 0 0 Z " fill="#004956" transform="translate(105,115)"/>
<path d="M0 0 C4.62 0 9.24 0 14 0 C14 20.13 14 40.26 14 61 C9.38 61 4.76 61 0 61 C0 40.87 0 20.74 0 0 Z " fill="#004856" transform="translate(129,115)"/>
<path d="M0 0 C2.375 1.125 2.375 1.125 4 3 C4.92967567 6.12105404 5.2690005 8.11963471 4.3125 11.25 C2.6425575 13.47659001 1.684756 14.2018293 -1 15 C-7.09749492 14.78605281 -7.09749492 14.78605281 -9.9375 12.3125 C-11.33817538 9.26397123 -11.4842732 7.32073048 -11 4 C-8.04627097 -0.48966812 -5.14336369 -0.64292046 0 0 Z " fill="#004956" transform="translate(61,24)"/>
<path d="M0 0 C2.4375 1.5625 2.4375 1.5625 4 4 C4.42460581 7.45750445 4.70099685 9.83167192 2.875 12.875 C0.18335071 14.48998958 -1.86418639 14.87456746 -5 15 C-7.32731556 13.86220128 -9.16840714 12.83159286 -11 11 C-11.58479532 3.74853801 -11.58479532 3.74853801 -9.4375 1 C-6.05216491 -0.38885542 -3.62487235 -0.45310904 0 0 Z " fill="#004956" transform="translate(78,24)"/>
</svg>
